<svg width="50" height="45" viewBox="0 0 50 45" fill="none" xmlns="http://www.w3.org/2000/svg">
<path d="M50 8.06299C50 18.8384 50 29.6139 50 40.3893C49.9755 40.4505 49.9388 40.5116 49.9266 40.5728C49.4985 42.8355 47.7984 44.291 45.4746 44.291C31.8249 44.3032 18.1751 44.3032 4.51321 44.2787C3.84051 44.2787 3.10665 44.1197 2.49511 43.8262C0.758317 42.9945 0 41.5146 0 39.6065C0 29.2714 0 18.9363 0 8.61338C0 8.47884 0 8.3443 0 8.20976C0.122309 8.33207 0.171233 8.46661 0.220157 8.60115C1.87133 13.5424 3.5225 18.496 5.17368 23.4373C5.90753 25.6266 7.4364 26.7274 9.74804 26.7274C12.2065 26.7274 37.7691 26.7274 40.1908 26.7274C42.5758 26.7274 44.0802 25.6388 44.8386 23.3883C46.4897 18.4226 48.1531 13.4691 49.8043 8.5033C49.8532 8.35653 49.9388 8.20976 50 8.06299Z" fill="#844AFF"/>
<path d="M17.2529 23.7924C14.7333 23.7924 12.2137 23.7924 9.68192 23.7924C8.72791 23.7924 8.27536 23.4744 7.96959 22.5815C6.19611 17.2489 4.41039 11.9162 2.63691 6.5835C2.60022 6.47342 2.57576 6.36334 2.53906 6.2288C6.59973 6.2288 10.6359 6.2288 14.7822 6.2288C14.7822 5.58056 14.7211 4.94455 14.7944 4.32078C15.0635 1.9969 16.7881 0.394651 19.1242 0.370189C23.0503 0.321265 26.9642 0.321265 30.8903 0.370189C33.3854 0.406882 35.1834 2.27821 35.2445 4.77332C35.2568 5.22586 35.2445 5.67841 35.2445 6.19211C39.3052 6.19211 43.3536 6.19211 47.4755 6.19211C47.4021 6.42449 47.3532 6.5835 47.3042 6.7425C45.5674 11.9651 43.8184 17.1877 42.0816 22.4225C41.7269 23.4989 41.3111 23.8046 40.1981 23.8046C37.7519 23.7924 17.3752 23.7924 17.2529 23.7924ZM17.6809 6.17988C22.5978 6.17988 27.4412 6.17988 32.3213 6.17988C32.3213 5.73956 32.3213 5.33594 32.3213 4.93232C32.3091 3.856 31.7343 3.29338 30.6457 3.28115C28.9578 3.28115 27.27 3.28115 25.5699 3.28115C23.4539 3.28115 21.338 3.28115 19.2343 3.28115C18.3659 3.28115 17.7299 3.83154 17.6809 4.63878C17.6565 5.14025 17.6809 5.65395 17.6809 6.17988Z" fill="#844AFF"/>
<path d="M18.6015 35.2513C18.0385 35.5373 17.3998 35.0361 17.5135 34.3962L18.724 27.5643L13.5863 22.7169C13.1065 22.2633 13.3558 21.4342 13.999 21.3447L21.1419 20.3394L24.3269 14.0895C24.6142 13.5262 25.3914 13.5262 25.6787 14.0895L28.8637 20.3394L36.0066 21.3447C36.6497 21.4342 36.8991 22.2633 36.4179 22.7169L31.2816 27.5643L32.492 34.3962C32.6058 35.0361 31.967 35.5373 31.4041 35.2513L25.0006 31.9928L18.6 35.2513H18.6015Z" fill="white"/>
</svg>
