<svg width="50" height="50" viewBox="0 0 50 50" fill="none" xmlns="http://www.w3.org/2000/svg">
<path d="M25 46.875C38.8062 46.875 50 37.0812 50 25C50 12.9188 38.8062 3.125 25 3.125C11.1937 3.125 0 12.9188 0 25C0 30.5 2.32188 35.5312 6.15625 39.375C5.85313 42.55 4.85312 46.0313 3.74688 48.6438C3.5 49.225 3.97812 49.875 4.6 49.775C11.65 48.6188 15.8406 46.8437 17.6625 45.9187C20.056 46.5571 22.5229 46.8786 25 46.875Z" fill="#FF755C"/>
<path d="M24.9992 18.728C30.1992 13.3811 43.2023 22.7373 24.9992 34.7655C6.79607 22.7342 19.7992 13.3811 24.9992 18.728Z" fill="#FCFCFC"/>
</svg>
