<svg width="51" height="59" viewBox="0 0 51 59" fill="none" xmlns="http://www.w3.org/2000/svg">
<path d="M22.6454 0.666511C10.4624 0.666511 0.665771 10.8424 0.665771 23.3517C0.665771 32.4258 5.78389 40.1711 13.2256 43.8008V58.9998H35.2052V49.2776H38.3452C41.8305 49.2776 44.6251 46.3934 44.6251 42.7961V33.0739H49.335C50.6538 33.0739 51.4073 31.4535 50.6538 30.4489L44.6251 22.2498C44.3484 16.4272 41.9114 10.9377 37.8193 6.91935C33.7272 2.90101 28.2938 0.662011 22.6454 0.666511Z" fill="#3C65FE"/>
<path fill-rule="evenodd" clip-rule="evenodd" d="M22.2422 35.7144C29.1457 35.7144 34.7422 30.1179 34.7422 23.2144C34.7422 16.3108 29.1457 10.7144 22.2422 10.7144C15.3386 10.7144 9.74219 16.3108 9.74219 23.2144C9.74219 24.3344 9.88951 25.4201 10.1658 26.453L14.4825 22.5295C14.5808 22.4395 14.6978 22.368 14.8266 22.3192C14.9555 22.2704 15.0937 22.2452 15.2333 22.2452C15.3729 22.2452 15.5111 22.2704 15.6399 22.3192C15.7688 22.368 15.8857 22.4395 15.984 22.5295L19.4628 25.7011L25.3736 20.3287H22.635C22.3545 20.3287 22.0856 20.2274 21.8873 20.0472C21.689 19.8669 21.5776 19.6225 21.5776 19.3676C21.5776 19.1127 21.689 18.8683 21.8873 18.688C22.0856 18.5078 22.3545 18.4065 22.635 18.4065H27.9219C28.0601 18.408 28.1966 18.4342 28.3237 18.4834C28.5821 18.5809 28.7874 18.7676 28.8947 19.0024C28.9489 19.1179 28.9776 19.242 28.9793 19.3676V24.173C28.9793 24.4279 28.8679 24.6723 28.6696 24.8526C28.4713 25.0328 28.2023 25.134 27.9219 25.134C27.6415 25.134 27.3725 25.0328 27.1742 24.8526C26.9759 24.6723 26.8645 24.4279 26.8645 24.173V21.6838L20.2136 27.7386C20.1153 27.8286 19.9983 27.9001 19.8695 27.9489C19.7406 27.9977 19.6024 28.0228 19.4628 28.0228C19.3232 28.0228 19.185 27.9977 19.0562 27.9489C18.9273 27.9001 18.8104 27.8286 18.7121 27.7386L15.2333 24.567L10.9123 28.5019C12.9041 32.7625 17.2284 35.7144 22.2422 35.7144Z" fill="#FCFCFC"/>
</svg>
