<svg width="30" height="30" viewBox="0 0 30 30" fill="none" xmlns="http://www.w3.org/2000/svg">
<path d="M14.8925 0C7.275 0 7.75 3.32 7.75 3.32L7.75875 6.76H15.0262V7.7925H4.875C4.875 7.7925 0 7.23625 0 14.9612C0 22.6862 4.25375 22.4113 4.25375 22.4113H6.79125V18.8275C6.79125 18.8275 6.655 14.5525 10.9787 14.5525H18.1862C18.1862 14.5525 22.2362 14.6175 22.2362 10.6175V4.0025C22.2362 4.0025 22.85 0 14.8913 0H14.8925ZM10.885 2.3125C11.6075 2.3125 12.1925 2.9 12.1925 3.6275C12.1925 4.35375 11.6075 4.94125 10.885 4.94125C10.1613 4.94125 9.5775 4.35375 9.5775 3.6275C9.5775 2.9 10.1613 2.3125 10.885 2.3125Z" fill="white"/>
<path d="M15.1048 29.9999C22.7198 29.9999 22.2448 26.6799 22.2448 26.6799L22.236 23.2399H14.9685V22.2074H25.1223C25.1223 22.2074 29.9973 22.7636 29.9973 15.0386C29.9973 7.31362 25.7423 7.58862 25.7423 7.58862H23.2048V11.1724C23.2048 11.1724 23.341 15.4474 19.0173 15.4474H11.811C11.811 15.4474 7.76102 15.3824 7.76102 19.3824V25.9974C7.76102 25.9974 7.14602 29.9999 15.1048 29.9999ZM19.1123 27.6874C18.3885 27.6874 17.8048 27.0999 17.8048 26.3724C17.8048 25.6461 18.3885 25.0586 19.1123 25.0586C19.8348 25.0586 20.4198 25.6461 20.4198 26.3724C20.4198 27.0999 19.8348 27.6874 19.1123 27.6874Z" fill="white"/>
</svg>
