<svg width="30" height="30" viewBox="0 0 30 30" fill="none" xmlns="http://www.w3.org/2000/svg">
<path d="M14.9997 17.6447C16.4407 17.6447 17.6088 16.4606 17.6088 14.9999C17.6088 13.5391 16.4407 12.355 14.9997 12.355C13.5588 12.355 12.3906 13.5391 12.3906 14.9999C12.3906 16.4606 13.5588 17.6447 14.9997 17.6447Z" fill="white"/>
<path d="M15 20.4186C22.732 20.4186 29 17.9925 29 14.9998C29 12.0071 22.732 9.58105 15 9.58105C7.26801 9.58105 1 12.0071 1 14.9998C1 17.9925 7.26801 20.4186 15 20.4186Z" stroke="white"/>
<path d="M10.3742 17.7094C14.2402 24.4973 19.4468 28.787 22.0035 27.2906C24.5602 25.7943 23.4988 19.0785 19.6328 12.2906C15.7668 5.5027 10.5602 1.21303 8.00351 2.70938C5.44682 4.20573 6.50822 10.9215 10.3742 17.7094Z" stroke="white"/>
<path d="M10.3742 12.2908C6.50822 19.0787 5.44682 25.7945 8.00351 27.2908C10.5602 28.7872 15.7668 24.4975 19.6328 17.7096C23.4988 10.9216 24.5602 4.20592 22.0035 2.70957C19.4468 1.21322 14.2402 5.50289 10.3742 12.2908Z" stroke="white"/>
</svg>
