<svg width="30" height="22" viewBox="0 0 30 22" fill="none" xmlns="http://www.w3.org/2000/svg">
<path d="M26.7 18.45C26.7 18.45 29.4 18.15 29.4 14.85C29.4 11.55 26.25 11.1 26.25 11.1H20.55V21.9H23.4V19.35L25.95 21.9H30L26.7 18.45ZM25.5 16.35H23.25V13.95H25.5C25.5 13.95 26.1 14.25 26.1 15.15C26.25 16.05 25.5 16.35 25.5 16.35V16.35ZM28.95 5.7V6C16.8 2.55 12 13.2 12.9 21.45H3.45C4.5 13.35 14.7 -2.7 28.95 5.7V5.7ZM27.75 3.75C26.7 3.3 25.65 2.85 24.6 2.55L24.75 0.6L27.9 1.8L27.75 3.75ZM24.75 6.45C25.8 6.45 26.85 6.6 27.9 6.9L27.75 8.7L25.05 8.4L24.75 6.45ZM17.85 2.1L17.25 0.3L20.4 0L21 1.95C20.7 1.95 18.15 2.1 17.85 2.1V2.1ZM19.8 7.65C20.4 7.35 21.45 6.9 22.8 6.6L23.4 8.4L20.7 9.45L19.8 7.65ZM14.7 3.15C13.8 3.6 12.9 4.05 12 4.65L10.8 2.7L13.5 1.2L14.7 3.15ZM18.45 8.55L19.65 10.35L18 12.3L16.35 10.8C16.8 9.9 17.55 9.15 18.45 8.55V8.55ZM14.4 15.9C14.55 14.7 14.85 13.65 15.3 12.45L17.1 13.95L16.65 16.8L14.4 15.9V15.9ZM8.85 7.35C8.1 8.1 7.35 9 6.75 9.75L4.8 8.1L7.05 5.7L8.85 7.35ZM4.2 13.95C3.6 15.15 3.15 16.35 2.7 17.4L0 16.35L1.35 12.9L4.2 13.95V13.95ZM14.25 17.85L16.95 18.75L17.4 21.75L14.4 21C14.4 20.7 14.25 19.65 14.25 17.85V17.85Z" fill="white"/>
</svg>
