<svg width="51" height="59" viewBox="0 0 51 59" fill="none" xmlns="http://www.w3.org/2000/svg">
<g clip-path="url(#clip0_601_375)">
<path d="M14.9942 58.9997C13.9916 58.6048 13.6574 57.8604 13.6574 56.8122C13.6878 53.85 13.6574 50.8878 13.6726 47.9255C13.6726 47.5002 13.5511 47.3027 13.1561 47.1356C5.84922 44.1278 1.55018 38.6742 0.243752 30.8964C-0.318314 27.524 0.0766511 24.2124 1.27674 20.9463C1.48941 20.9463 1.6869 20.9463 1.89957 20.9463C15.0398 20.9463 28.1952 20.9463 41.3354 20.9312C41.8367 20.9312 42.0949 21.0375 42.2012 21.554C42.5202 23.1946 42.8393 24.82 43.1887 26.4455C43.2494 26.7189 43.3254 26.9924 43.4773 27.2202C45.5584 30.3496 47.6396 33.4637 49.7056 36.593C49.9335 36.9424 50.1309 37.383 50.1613 37.7931C50.2373 38.7502 49.4473 39.4945 48.4447 39.5097C46.9408 39.5249 45.4521 39.5097 43.9482 39.5097C43.7355 39.5097 43.538 39.5097 43.2646 39.5097C43.2494 39.7376 43.2342 39.9351 43.2342 40.1325C43.2342 42.2441 43.2342 44.3404 43.2342 46.452C43.2342 47.8647 42.5962 48.5028 41.1986 48.5028C39.6643 48.5028 38.1301 48.5028 36.535 48.5028C36.535 48.761 36.535 48.9889 36.535 49.2016C36.535 51.7233 36.5046 54.245 36.5502 56.7819C36.5654 57.83 36.2312 58.5744 35.2438 58.9845C28.4838 58.9997 21.739 58.9997 14.9942 58.9997Z" fill="#FF4181"/>
<path d="M24.094 0.666504C24.7016 1.04628 24.9143 1.59315 24.8687 2.30713C24.8384 2.8692 24.6865 3.56798 24.9447 3.97814C25.2029 4.3731 25.9169 4.44906 26.4182 4.67692C27.4968 5.14784 27.4968 5.14784 28.3171 4.32753C28.5753 4.06928 28.8184 3.81104 29.0918 3.56798C29.5779 3.12744 30.216 3.11225 30.6717 3.56798C31.7654 4.63135 32.8288 5.69472 33.8922 6.78847C34.3783 7.28977 34.3631 7.89741 33.877 8.4139C33.3605 8.94558 32.8136 9.44689 32.2971 9.933C32.6769 10.8596 33.0415 11.7103 33.4213 12.637C34.1049 12.637 34.834 12.6218 35.5784 12.637C36.2468 12.6522 36.7329 13.0016 36.7633 13.6244C36.8089 14.9004 36.7785 16.1917 36.7785 17.5133C33.8922 17.5133 31.0363 17.5133 28.1348 17.5133C28.5602 15.0372 27.9525 12.8649 26.1448 11.1179C24.732 9.73552 22.9851 9.12788 21.0102 9.23421C17.2884 9.44689 13.9312 12.8649 14.7515 17.4981C11.8956 17.4981 9.03974 17.4981 6.09269 17.4981C6.09269 16.9968 6.09269 16.4955 6.09269 15.9942C6.09269 15.2802 6.0775 14.5511 6.09269 13.8371C6.10788 13.0775 6.54842 12.6522 7.30797 12.637C7.67255 12.6218 8.02194 12.637 8.38653 12.637C8.75111 12.637 9.1005 12.637 9.43471 12.637C9.79929 11.8015 10.1487 11.0116 10.4829 10.2064C10.5285 10.1001 10.4373 9.88743 10.3462 9.78109C9.92082 9.32536 9.46509 8.90001 9.02455 8.44428C8.49286 7.88222 8.47767 7.28977 9.02455 6.7277C10.0575 5.66433 11.1057 4.61616 12.1539 3.58317C12.6704 3.08187 13.2932 3.09706 13.8249 3.59836C14.2654 4.00852 14.6908 4.44906 15.1161 4.88959C15.3136 5.08708 15.4655 5.16303 15.7542 5.02631C16.377 4.72249 17.0454 4.49463 17.6834 4.206C17.8353 4.13005 18.0024 3.90218 18.0176 3.73508C18.0632 3.2034 18.0632 2.67171 18.0328 2.14003C17.9872 1.45643 18.2303 0.955132 18.8683 0.681695C20.6001 0.666504 22.347 0.666504 24.094 0.666504Z" fill="#FF4181"/>
<path d="M21.4375 17.5286C20.5564 17.5286 19.6601 17.5134 18.779 17.5286C18.46 17.5286 18.3081 17.4374 18.2018 17.1336C17.7309 15.7968 18.217 14.1866 19.3715 13.3207C20.5716 12.4092 22.2426 12.394 23.4427 13.2751C24.6428 14.1714 25.1441 15.7512 24.6732 17.1184C24.5668 17.407 24.4453 17.5286 24.1111 17.5286C23.2148 17.5134 22.3337 17.5286 21.4375 17.5286Z" fill="white"/>
</g>
<defs>
<clipPath id="clip0_601_375">
<rect width="50.1758" height="58.3333" fill="white" transform="translate(0 0.666504)"/>
</clipPath>
</defs>
</svg>
